<?xml version="1.0" encoding="utf-8"?>
<!-- Generator: Adobe Illustrator 23.0.2, SVG Export Plug-In . SVG Version: 6.00 Build 0)  -->
<svg version="1.1" id="Layer_1" xmlns="http://www.w3.org/2000/svg" xmlns:xlink="http://www.w3.org/1999/xlink" x="0px" y="0px"
	 viewBox="0 0 595.28 595.28" style="enable-background:new 0 0 595.28 595.28;" xml:space="preserve">
<style type="text/css">
	.st0{fill:#79C79E;}
	.st1{fill:#F597A9;}
	.st2{fill:#46B3BD;}
	.st3{fill:#8A98B6;}
	.st4{fill:#F3797A;}
</style>
<path class="st1" d="M100.35,35.44v524.41h394.58V35.44H100.35z M420.73,49.69c0.21,9,2.53,30.16,18.12,49.73
	c-8.97-7.85-15.96-15.16-16.35-15.58c0.82-1.22,1.3-2.69,1.3-4.27c0-4.21-3.43-7.64-7.64-7.64s-7.64,3.43-7.64,7.64
	c0,4.21,3.43,7.64,7.64,7.64c1.12,0,2.18-0.25,3.13-0.68c0.04,0.05,0.08,0.11,0.12,0.16c0.22,0.24,1.9,2,4.56,4.64
	c-4.64-1.8-9.19-3.12-13.63-3.95c-1.35-2.91-3.49-6.44-5.51-9.52c-0.23-2.52-0.9-6.58-2.84-11.12c-2.28-5.33-6.76-12.07-15.4-17.05
	H420.73z M417.64,158.61c0.13,0.24,0.26,0.48,0.38,0.71c0.15,0.4,0.73,1.92,1.76,3.88c2.2,5.57,2.15,9.37,1.5,11.8
	c-0.87,3.24-2.95,4.82-4.25,5.53C418.23,176.85,419.75,169.37,417.64,158.61z M420,157.53c4.58,5.7,11.34,11.97,14.94,15.2
	c-3.45-0.25-6.65-2.14-9.55-5.66c-1.35-1.64-2.42-3.39-3.22-4.89C421.58,160.68,420.85,159.13,420,157.53z M419.66,152.69
	c8.19,8.39,19.91,14.93,24.1,17.12c-1.09,0.93-2.43,1.71-4.04,2.25c-0.41,0.14-0.82,0.25-1.22,0.34
	C435.8,170.06,424.3,159.87,419.66,152.69z M423.26,152.6c12.02,5.59,23.06,7.19,24.75,7.41c0.02,2.51-0.67,5.41-2.43,7.83
	C442.45,166.22,431.46,160.27,423.26,152.6z M421.65,148.93c0-0.01,0.01-0.02,0.01-0.03c3.36,0.8,10.12,1.8,18.16-0.36
	c4.77,1.22,7.14,5.13,7.91,8.81C444.64,156.89,433.16,154.83,421.65,148.93z M421.9,146.29c0-0.04-0.01-0.08-0.01-0.11
	c4.46-0.68,17.5-2.97,23.95-7.29c-0.25,2.59-1.34,5.44-4.68,6.55C432.56,148.31,425.07,147.08,421.9,146.29z M421.28,143.66
	c-0.05-0.12-0.1-0.23-0.16-0.34c2.38-1.27,6.62-3.58,10.86-6.03c6.95-4.02,10.33-6.37,11.98-7.83c0.77,1.63,1.35,3.34,1.67,5.05
	c0.05,0.29,0.12,0.69,0.17,1.14C440.87,140.37,425.7,142.98,421.28,143.66z M419.62,141.18c-0.03-0.03-0.06-0.06-0.09-0.09
	c0.83-1.39,7.9-12.86,18.81-18.75c1.65,1.22,3.13,2.89,4.33,4.8C440.5,129.45,429.93,135.71,419.62,141.18z M417.42,139.59
	c-0.13-0.06-0.26-0.12-0.39-0.17c0.47-1.76,1.27-4.36,2.45-7.08l0.08,0.03c0.08-0.23,0.13-0.44,0.2-0.67
	c2.46-5.44,6.43-11.13,12.36-11.46c1.23-0.06,2.44,0.16,3.6,0.62C425.3,127.06,418.7,137.46,417.42,139.59z M417.45,130.51
	c-0.99,2.17-1.74,4.29-2.29,6.06c0.14-5.52,0.21-15.79-0.9-21.32c0.17,0.14,0.33,0.29,0.47,0.46
	C418.32,119.82,419.21,124.67,417.45,130.51z M406.09,182.14c2.15-4.66,7.65-17.47,7.97-27.23c0.02,0,0.04,0,0.06,0
	c4.36,16.27,0.12,25.93-0.37,26.95C411.36,182.54,408.72,182.74,406.09,182.14z M387.12,161.8c-1.08-0.95-2.16-1.89-3.27-2.81
	c4.24-1.81,14.81-6.08,23.32-7.63c0.09,0.14,0.19,0.28,0.29,0.41C402.85,155.75,392.91,162.99,387.12,161.8z M395.04,162.98
	c-0.83,1.35-1.53,2.84-1.96,4.41c-1.01-1.01-2.04-2-3.09-2.98C391.62,164.2,393.33,163.69,395.04,162.98z M409.88,138.88
	c-7.75-7.49-15.11-16.41-15.11-19.61c1.95-2.15,4.74-3.68,7.35-4.58C401.19,121.98,407.49,134.47,409.88,138.88z M404.93,113.95
	c2.32-0.45,4.49-0.46,6.27-0.08c1.46,3.16,1.6,15.9,1.32,24.44C409.45,132.76,403.13,119.47,404.93,113.95z M400.35,132.63
	c2.87,3.26,5.85,6.25,7.61,7.99c-1.75-1.41-4.11-3.14-6.79-4.69l0.02-0.05c-0.02-0.01-0.27-0.11-0.68-0.31
	c-0.43-0.24-0.86-0.47-1.3-0.69c-2.91-1.68-7.9-5.44-6.81-11.1c0.11-0.57,0.28-1.1,0.5-1.62
	C393.89,124.42,396.02,127.71,400.35,132.63z M394.32,135.56c1.22,0.43,2.42,0.96,3.59,1.55c0.53,0.3,1.01,0.55,1.39,0.74
	c2.99,1.67,5.64,3.64,7.46,5.13c-0.01,0.02-0.03,0.04-0.04,0.07c-8.3-2.95-19.56-5.22-24.76-6.18c0.54-0.46,1.15-0.89,1.86-1.26
	C386.64,134.13,390.17,134.12,394.32,135.56z M405.88,145.5c-0.01,0.04-0.01,0.08-0.02,0.12c-7.9,0.49-24.02,1.47-27.62,1.69
	c-0.02-0.36-0.04-0.72-0.04-1.08c-0.02-1.83,0.27-4.63,1.8-7.08C384.07,139.87,396.92,142.31,405.88,145.5z M405.89,148.2
	c0.04,0.25,0.1,0.49,0.16,0.73c-9.77,1.89-21.51,6.9-24.47,8.21c-0.05-0.04-0.09-0.07-0.14-0.11c-1.32-2.06-2.33-4.57-2.85-7.16
	C382.51,149.63,398.07,148.69,405.89,148.2z M400.94,159.95l-0.05-0.06c3.42-2.15,6.37-4.54,8.03-5.96
	c-2.92,6.04-8.42,13.45-11.78,17.73c-0.63-0.69-1.26-1.37-1.91-2.05C395.85,164.43,400.65,160.2,400.94,159.95z M411.48,154.56
	c-0.19,8.57-4.94,20.22-7.28,25.46c-1.7-2.19-3.47-4.33-5.31-6.41C402.37,169.22,408.4,161.17,411.48,154.56z M409.54,106.56
	c0,1.73,0.55,3.33,1.47,4.65c-2.44-0.39-5.3-0.22-8.28,0.59c-3.65,0.99-7.65,3.02-10.25,6.14l-0.09-0.03
	c-0.02,0.06-0.04,0.13-0.06,0.2c-1.2,1.48-2.08,3.2-2.46,5.16c-0.71,3.71,0.47,6.71,2.27,9.02c-3.59-0.73-6.79-0.4-9.52,1.02
	c-4.57,2.39-7.06,6.98-7.01,12.93c0.02,2.49,0.51,5.02,1.34,7.38c-10.24-7.45-21.56-13.49-33.68-17.84
	c11.69-5.49,33.33-18.58,42.34-42.97c3.52-1.16,8.19-2.15,13.97-2.15c10.68,0,22.17,3.31,34.13,9.84c2.31,2.08,4.8,4.23,7.38,6.35
	c-7.59-1.37-15.78-3.71-15.88-3.74c-0.06-0.02-0.12-0.02-0.17-0.03c-1.31-2.75-4.11-4.67-7.36-4.67
	C413.2,98.42,409.54,102.07,409.54,106.56z M378.27,49.69c1.28,6.47,5.99,21.36,22.59,29.71c1.52,2.29,3.16,4.88,4.45,7.25
	c-1.78-0.18-3.54-0.29-5.29-0.3c-1.89-1.3-7.98-4.64-14.88-8.33c-4.72-6.42-16.65-20.58-34.67-28.34H378.27z M344.99,72.87
	c11.67,5.22,30.17,7.88,38.12,8.83c2.66,1.42,5.14,2.75,7.27,3.91c-16.6,4.04-32.63,0.4-39.56-1.65c-0.72-2.19-2.66-5.1-3.89-6.24
	c-0.35-1.82-1.34-3.63-2.81-5.27C344.41,72.6,344.7,72.74,344.99,72.87z M297.85,54.79c-2.88-2.16-5.85-3.86-8.87-5.1h28.9
	c3.61,4.37,10.12,11.67,17.56,17.33c-1.45-0.46-2.97-0.79-4.55-0.95c-4.91-0.48-7.67,0.4-9.67,2.28c-0.23-2.29-0.98-7.03-3.4-6.56
	c-2.59,0.5-0.13,7.1-0.13,7.1s-6.6-6.37-8.12-2.41c-1.33,3.47,6.78,4.55,6.78,4.55c-4.25,0.54-6.94,2.93-4.34,4.43
	c1.69,0.98,4.18-0.38,5.73-1.45c-0.66,2.58-1.02,8.24,6.58,12.2c6.4,3.33,12.44,3.72,16.77,1.61c1.61,0.25,5.67,0.69,8.44-0.65
	c4.89,1.49,14.33,3.81,25.53,3.71c-0.73,0.12-1.48,0.26-2.25,0.41c-6.62,1.32-15.65,4.08-21.07,9.72
	c-7.81,8.14-11.83,21.32-14.48,30.04c-0.27,0.88-0.52,1.71-0.77,2.51c-6.93-2.07-14.09-3.61-21.44-4.54
	c-1.19-5.46-3.82-9.49-7.28-11.57c-0.67-1.5-2.53-5.16-5.18-6.77c-1.07-3.72-3.16-9.88-6.78-16.71c12.9,7.32,34.24,8.12,34.46,8.13
	l0.84,0.03l-0.37-0.76C315.52,70,281.22,66.43,270.62,66.09c-6.43-3.35-12.14-6.23-13.9-6.87c-0.83-1.19-1.76-2.39-2.79-3.6
	c2.44-0.25,5.2-0.36,7.67-0.39c5.8,3.21,11.96,4.84,18.35,4.84c10.38,0,17.56-4.25,17.86-4.43l0.65-0.39L297.85,54.79z
	 M264.14,77.59c-0.33-2.9-1.28-7.32-3.85-12.45c2.33,1.17,5.33,2.72,8.63,4.44c3.83,4.37,11.93,13.23,20.07,19.67
	c5.72,8.75,8.79,17.38,10.19,22.1c-1.46,1.82-2.85,5.06-3.13,6.72c-2.27,2.19-3.5,5.88-3.48,9.99c-7.22,0.29-14.3,1.15-21.19,2.54
	c3.42-7.25,7.55-16.96,7.36-25.89C278.49,93.38,267.86,81.44,264.14,77.59z M264.25,49.69c-1.44,0.59-2.63,1.18-3.53,1.69
	c-3.35,0.07-7.11,0.27-9.98,0.76c-0.82-0.82-1.7-1.63-2.62-2.46H264.25z M253.15,89.02c-5.75,0.16-11.06,1.05-15.95,2.47
	c0.18-0.37,0.36-0.74,0.54-1.13c3.13-6.5,7.86-16.33,7.67-25.27c-0.11-5.38-2.88-10.91-5.92-15.39h2.84
	c2.3,1.81,4.31,3.63,6.07,5.45c0.18,0.34,0.45,0.62,0.78,0.8c10.07,10.79,11.31,20.93,11.44,24.03c-8.02,21-2.04,41.98,2.25,52.65
	c-10.27,2.79-20.05,6.75-29.19,11.76c-4.21-3.06-9.03-5.92-13.99-7.1c-1.31-0.31-2.73-0.46-4.24-0.46c-7.88,0-16.43,4.13-20.25,6.22
	c-2.08-0.39-4.55-0.68-7.4-0.68c-0.53,0-1.08,0.01-1.65,0.03c2.15-1.74,4.96-3.97,8.06-6.4c7.71-2.36,24.75-8.05,34.97-15
	c13.48-9.17,24.34-31.03,24.44-31.25l0.37-0.76L253.15,89.02z M192.86,103.92l-0.09-0.75l-0.66,0.37
	c-18.42,10.16-19.06,26.63-18.58,32.81c-1.32,3.1-2.7,6.63-3.44,9.48c-3.55,1.34-7.38,3.16-11.42,5.6c1.7-2.42,2.85-4.14,3.23-4.72
	c0.04,0,0.08,0.01,0.12,0.01c3.23,0,5.85-2.63,5.85-5.86s-2.63-5.86-5.85-5.86c-3.23,0-5.85,2.63-5.85,5.86c0,1.75,0.78,3.32,2,4.39
	c-1.4,2.08-5.8,8.49-11.41,15.52c12.4-23.29,8.53-45.51,7.5-50.22c0.09-0.05,0.15-0.08,0.15-0.08c-0.12-0.29-0.7-1.56-0.7-1.56
	c-5.07-10.27-15.51-8.71-15.51-8.71c1.73-1.07,2.99-2.46,3.91-4.02c5.67,2.25,11.63,1.25,15.97-0.95c1.76-0.89,4.9-3.09,6.15-7.74
	c0.53-1.98,0.65-4.15,0.38-6.5c5.04,5.59,11.05,7.42,17.45,5.26c3.42-1.15,6.16-3.31,8.02-6.1c-0.96,6.51,0.87,12.78,4.55,15.73
	c0.47,1.75,2.27,5.06,4.01,6.86c-1.59,7.98-6.51,26.29-19.92,40.4c-0.06,0.07-0.11,0.14-0.16,0.21c-1.26,0.26-2.58,0.58-3.94,0.97
	c0.78-2.33,1.81-4.88,2.8-7.15C195,123.97,192.88,104.12,192.86,103.92z M162.51,73.12c-0.63-1.59-1.4-3.23-2.3-4.94
	c4.87,6.06,12.05,12.73,15.89,16.15c-3.67-0.26-7.07-2.27-10.15-6.02C164.5,76.58,163.36,74.72,162.51,73.12z M189.98,70.82
	c0.03,2.66-0.71,5.75-2.59,8.33c-3.32-1.72-15.01-8.05-23.72-16.2C176.46,68.88,188.19,70.59,189.98,70.82z M161.95,59.04
	c0-0.01,0.01-0.02,0.01-0.03c3.58,0.85,10.78,1.91,19.31-0.38c5.07,1.3,7.58,5.45,8.41,9.37C186.4,67.5,174.19,65.31,161.95,59.04z
	 M226.09,49.69c-6.61,18.92,2.22,36.61,6.36,43.38c-19.62,7.46-31.8,23.46-37.94,33.82l-0.15-0.05c4.81-9.71,7.03-18.73,7.98-23.73
	c2.67-1.98,4.3-6.08,4.87-7.75c4.2-3.07,6.87-9.04,6.9-16.85c0.04-9.26-5.56-11.76-8.35-12.43c1.8-0.94,4.35-2.64,4.26-4.75
	c-0.14-3.24-3.77-1.88-6.42,1.91c0,0,3.05-8.3-0.94-8.77c-4.55-0.54-1.78,8.98-1.78,8.98s-5.08-5.67-6.85-3.45
	c-1.66,2.08,2.49,5.19,4.57,6.56c-2.29,0.78-4.19,2.39-5.9,5.62c0.04-0.66,0.06-1.33,0.03-2.01c-0.13-2.81-0.91-5.41-2.2-7.62
	c-1.31-2.25-3.16-4.08-5.38-5.32c2.77-1.48,4.54-4.14,5.14-7.57H226.09z M187.47,49.69c-0.49,2.34-1.78,4.64-4.77,5.64
	c-9.15,3.05-17.1,1.74-20.48,0.91c0-0.04-0.01-0.08-0.01-0.12c4.26-0.65,15.87-2.68,23.16-6.43H187.47z M167.58,49.69h10.54
	c-6.37,2.07-13.65,3.3-16.57,3.74c-0.05-0.12-0.11-0.24-0.17-0.37C162.89,52.27,165.1,51.07,167.58,49.69z M185.46,81.25
	c-1.16,0.99-2.58,1.81-4.3,2.39c-0.44,0.15-0.87,0.26-1.3,0.37c-2.87-2.5-15.09-13.34-20.03-20.96
	C168.55,71.96,181,78.91,185.46,81.25z M157.69,69.34c0.13,0.25,0.28,0.51,0.41,0.76c0.16,0.43,0.77,2.04,1.87,4.12
	c2.34,5.93,2.29,9.97,1.6,12.55c-0.93,3.44-3.14,5.13-4.51,5.88C158.32,88.73,159.94,80.78,157.69,69.34z M153.95,65.4
	c4.64,17.31,0.12,27.58-0.39,28.65c-2.55,0.73-5.35,0.94-8.15,0.3c2.29-4.96,8.14-18.57,8.47-28.96
	C153.9,65.4,153.93,65.4,153.95,65.4z M144,90.74c0.99-5.83-0.59-11.66-0.59-11.66c-0.45,0.15-0.87,0.31-1.29,0.47
	c3.24-4.45,6.84-9.82,9.02-14.52C150.96,73.47,146.61,84.7,144,90.74z M136.81,82.02c-1.07,0.62-2.01,1.25-2.84,1.88
	c-1.32-6.72,5.61-12.83,5.97-13.14l-0.06-0.06c3.63-2.28,6.77-4.82,8.53-6.34C145.57,70.26,140.4,77.38,136.81,82.02z M146.89,49.69
	c0.17,0.17,0.36,0.36,0.51,0.51c-0.21-0.17-0.42-0.34-0.64-0.51H146.89z M146.87,62.06c-5.28,4.56-17.11,13.14-22.96,10.22
	c-1.01-0.5-1.97-1.27-2.87-2.23c3.9-1.69,15.94-6.68,25.51-8.42C146.66,61.77,146.76,61.92,146.87,62.06z M119.3,67.8
	c-1.44-2.21-2.55-4.94-3.12-7.76c4.16-0.25,20.7-1.26,29.02-1.78c0.05,0.26,0.1,0.52,0.17,0.78
	C134.93,61.07,122.36,66.45,119.3,67.8z M142.09,49.69c1.56,1.07,2.94,2.13,4.03,3.02c-0.01,0.03-0.03,0.05-0.04,0.07
	c-3.2-1.14-6.81-2.18-10.38-3.09H142.09z M117.1,49.69h6.1c6.12,1.23,15.12,3.26,21.99,5.7c-0.01,0.04-0.01,0.08-0.02,0.13
	c-8.4,0.53-25.53,1.56-29.36,1.8c-0.03-0.38-0.04-0.77-0.05-1.15C115.75,54.47,115.98,52.01,117.1,49.69z M114.61,64.5
	c1.72,4.61,4.67,8.53,8.08,10.23c3.11,1.55,7.06,0.88,10.98-0.75c-2.09,3.4-3.42,7.68-1.98,11.94c-4.11,4.24-3.9,8.11-3.9,8.11
	c-3.81-11.06-13.06-12.75-13.06-12.75c-0.04,0.1-0.07,0.19-0.11,0.28V64.5z M128.99,107.46c-2.31,0.71-4.76-0.6-5.46-2.91
	c-0.71-2.31,0.6-4.76,2.91-5.46c2.31-0.7,4.76,0.6,5.46,2.91C132.61,104.31,131.3,106.75,128.99,107.46z M114.61,95.95
	c1.57,3.24,3.75,4.98,3.75,4.98c-1.37,0.11-2.61,0.29-3.75,0.53V95.95z M114.61,113.63c4.87-0.1,8.53-2.71,8.53-2.71
	c-4.27,8.41,5.61,17.57,5.61,17.57c13.08-9.2,6.51-17.79,6.51-17.79c4.28,4.14,10.98,2.85,15.21,1.4
	c-24.88,26.11-20.04,56.67-18.25,64.51c-0.11,0.09-0.21,0.2-0.32,0.29c-5.17,4.56-9.93,10.58-13.86,16.3
	c1.75-10.18-0.27-18.38-3.35-24.56c15.27-14.54,12.16-38.74,12.12-39.03l-0.13-0.93l-0.71,0.61c-1.01,0.88-2.56,1.96-4.34,3.22
	c-2.07,1.46-4.55,3.22-7.02,5.23V113.63z M114.61,215.45c5.63,5.44,12.54,8.81,20.65,10.09c-1.1,0.59-2.26,1.33-3.48,2.26
	c-6.35,4.8-9.33,12.95-10.71,20.22c-0.03,0.15-0.24,0.14-0.25-0.01c-0.43-4.98-1.74-10.18-4.69-15.03c-0.39-0.64-0.9-1.26-1.52-1.8
	V215.45z M114.61,254.69c1.37,2.32,2.8,5.11,3.91,7.36c1.14-0.52,2.57-0.79,4.09-0.78c2.23-5.16,5.22-11.05,5.26-11.13l0.62-1.22
	l-0.13,1.36c-0.26,2.69-1.84,7.57-3.16,11.3c2.1,0.46,4.13,1.49,5.55,3.17c5.14-2.7,11.94-5.67,12.02-5.71l1.25-0.55l-0.96,0.96
	c-2.18,2.17-7.48,5.46-10.96,7.52c0.61,1.5,0.79,3.14,0.64,4.74c4.71,1.61,9.32,3.43,9.39,3.45l1.27,0.5l-1.36,0
	c-2.29-0.01-6.25-0.81-9.74-1.63c-0.66,2.26-1.91,4.2-3.36,5.18c-0.1,0.07-0.2,0.11-0.3,0.17c2.62,4.9,5.3,10.7,5.34,10.78
	l0.57,1.24l-0.98-0.95c-0.66-0.63-1.42-1.54-2.21-2.58c-1.79-2.34-3.77-5.41-5.25-7.78c-1.74,0.05-3.65-0.62-5.39-1.89
	c-1.86,5.63-5.33,13.67-5.37,13.76l-0.54,1.25l0.05-1.36c0.14-3.94,2.79-12.74,3.7-15.65c-0.38-0.44-0.75-0.91-1.09-1.41
	c-2.64-3.92-2.96-8.48-1.01-11.1c-0.62-1.47-1.25-3.06-1.83-4.58V254.69z M114.61,367.68c1.1,5.43,2.82,9.5,3.81,11.56
	c-0.56,0.88-1.13,1.74-1.7,2.56c-0.74,1.05-1.44,2.15-2.11,3.29V367.68z M114.61,421.72c3.11,4.53,6.63,5.39,6.63,5.39
	c-2.5,0.09-4.69,0.5-6.63,1.09V421.72z M114.61,442.45c6.48,0.53,11.06-2.62,11.06-2.62c-0.96,4.37-0.95,7.84-0.47,10.54
	c-0.27,0.06-0.54,0.13-0.81,0.2c-3.21,0.87-6.74,2.66-9.03,5.41l-0.08-0.03c-0.02,0.06-0.04,0.12-0.05,0.18
	c-0.22,0.27-0.43,0.55-0.62,0.84V442.45z M141.51,494.95c-0.52-1.31-1.16-2.68-1.91-4.09c1.89,2.35,4.19,4.8,6.44,7.05
	c-0.45,0.59-0.89,1.19-1.31,1.78c-0.13-0.14-0.25-0.28-0.38-0.43C143.16,497.81,142.22,496.27,141.51,494.95z M143.41,501.64
	c-0.04,0.06-0.08,0.13-0.12,0.19c-0.01-0.12-0.03-0.25-0.04-0.38C143.3,501.52,143.36,501.58,143.41,501.64z M137.53,491.81
	c0.11,0.21,0.23,0.43,0.34,0.63c0.13,0.35,0.64,1.69,1.55,3.41c1.94,4.91,1.9,8.26,1.32,10.4c0,0,0,0.01,0,0.01
	c-0.51,0.97-1,1.95-1.45,2.92c-0.78,0.98-1.64,1.6-2.29,1.95C138.04,507.88,139.38,501.29,137.53,491.81z M139.3,486.59
	c2.89,2.96,6.27,5.65,9.53,7.95c-0.47,0.52-0.92,1.04-1.36,1.56C144.36,492.99,141.19,489.51,139.3,486.59z M142.48,486.51
	c3.7,1.72,7.3,3.01,10.48,3.97c-0.88,0.77-1.71,1.57-2.52,2.38C147.75,490.99,144.97,488.84,142.48,486.51z M141.05,483.28
	c0-0.01,0.01-0.02,0.01-0.03c2.96,0.71,8.92,1.58,15.99-0.32c1.52,0.39,2.76,1.08,3.76,1.97c-2.05,1.17-3.96,2.45-5.72,3.81
	C151,487.57,146.03,485.83,141.05,483.28z M141.28,480.96c0-0.03,0-0.07-0.01-0.1c3.93-0.6,15.42-2.62,21.1-6.43
	c-0.22,2.28-1.18,4.79-4.13,5.78C150.67,482.73,144.07,481.65,141.28,480.96z M140.73,478.63c-0.04-0.1-0.09-0.2-0.14-0.3
	c2.09-1.12,5.84-3.15,9.57-5.31c6.13-3.54,9.1-5.61,10.55-6.9c0.68,1.43,1.19,2.94,1.47,4.45c0.05,0.26,0.1,0.61,0.15,1
	C157.99,475.74,144.63,478.04,140.73,478.63z M139.27,476.45c-0.03-0.03-0.05-0.05-0.08-0.08c0.73-1.23,6.96-11.33,16.58-16.52
	c1.46,1.07,2.76,2.54,3.82,4.22C157.66,466.12,148.35,471.63,139.27,476.45z M137.33,475.05c-0.11-0.05-0.23-0.1-0.34-0.15
	c0.42-1.55,1.12-3.84,2.16-6.24l0.07,0.02c0.07-0.2,0.12-0.39,0.18-0.59c2.17-4.79,5.66-9.8,10.89-10.09
	c1.08-0.06,2.15,0.14,3.17,0.54C144.27,464.01,138.45,473.18,137.33,475.05z M137.35,467.05c-0.87,1.91-1.54,3.78-2.02,5.34
	c0.11-4.51,0.17-12.64-0.6-17.68c0.14-0.15,0.29-0.3,0.42-0.46C138.15,457.82,138.87,462.02,137.35,467.05z M134.1,512.28
	c-1.77,0.51-3.68,0.71-5.62,0.46c-0.09-0.72-0.19-1.4-0.3-2.05c2.2-5.03,5.95-14.62,6.19-22.15c0.02,0,0.04,0,0.06,0
	C138.27,502.87,134.53,511.39,134.1,512.28z M131.41,435.34c-2.79,0-5.05-2.26-5.05-5.05c0-2.79,2.26-5.05,5.05-5.05
	c2.79,0,5.05,2.26,5.05,5.05C136.46,433.07,134.2,435.34,131.41,435.34z M129.44,458.54c1.23-0.62,2.3-1.29,3.24-2.01
	c0.49,4.72,0.5,12,0.32,17.39c-2.5-4.54-7.47-14.94-6.92-20.3C127.45,457.12,129.44,458.54,129.44,458.54z M130.69,474.43
	c-6.83-6.6-13.31-14.46-13.31-17.27c1.71-1.89,4.17-3.24,6.48-4.03C123.03,459.54,128.58,470.53,130.69,474.43z M122.81,492.99
	l-0.05-0.05c3.01-1.89,5.61-4,7.07-5.25c-3,6.21-9.11,14.07-11.68,17.26C116.02,498.96,122.5,493.26,122.81,492.99z M122.43,471.5
	c-0.37-0.21-0.75-0.41-1.13-0.6c-2.56-1.47-6.96-4.79-6-9.78c0.1-0.5,0.25-0.97,0.44-1.43c0.86,2,2.74,4.9,6.55,9.23
	c2.53,2.87,5.15,5.51,6.71,7.04c-1.54-1.24-3.62-2.77-5.99-4.13l0.02-0.05C123.02,471.77,122.79,471.67,122.43,471.5z
	 M114.61,470.85c0.76,0.15,1.55,0.37,2.37,0.65c1.07,0.37,2.13,0.85,3.16,1.36c0.47,0.27,0.9,0.49,1.23,0.65
	c2.64,1.47,4.96,3.21,6.57,4.52c-0.01,0.02-0.02,0.04-0.03,0.06c-4.08-1.45-8.97-2.71-13.3-3.7V470.85z M114.61,476.75
	c4.15,0.95,8.75,2.15,12.56,3.5c-0.01,0.04-0.01,0.07-0.02,0.1c-3.23,0.2-8.02,0.5-12.54,0.77V476.75z M114.61,483.41
	c4.51-0.27,9.3-0.57,12.57-0.77c0.04,0.22,0.08,0.43,0.14,0.65c-4.19,0.81-8.79,2.27-12.71,3.69V483.41z M114.61,489.42
	c4.18-1.54,9.26-3.2,13.69-4c0.08,0.12,0.17,0.24,0.26,0.36c-3.13,2.71-9.06,7.12-13.95,8.52V489.42z M119.12,536.42
	c-0.24,2.99-0.4,6.35-0.21,8.93c-0.09,0.08-0.18,0.16-0.28,0.23h-4.02v-48.94c0.99-0.23,2-0.57,3-0.99
	c-2.25,3.67-3.45,8.54,0.07,13.05c0.8,1.02,1.64,1.89,2.51,2.64C114.38,522.29,117.38,532.32,119.12,536.42z M119.48,507.3
	c-0.05-0.07-0.09-0.13-0.14-0.2c2.19-2.66,9.43-11.73,12.76-18.86c-0.13,5.9-2.71,13.45-4.82,18.68c-0.52-1.73-0.98-2.74-1-2.78
	l-0.32-0.68l-0.51,0.56c-1.64,1.78-2.97,3.56-4.08,5.32C120.71,508.74,120.08,508.08,119.48,507.3z M122.69,536.03
	c5.22-7.57,6.3-15.14,5.98-21.02c3.21,0.31,6.32-0.4,8.83-1.6c-2.23,5.84-3.34,11.11-3.89,14.61c-3.92,5.96-7.29,11.2-7.97,12.69
	c-1.07,0.61-2.17,1.29-3.28,2.05C122.35,540.62,122.5,538.2,122.69,536.03z M163.62,545.59h-39.46c9.35-6.35,17.29-6.64,20.02-6.51
	c5.94,3.01,12.45,4.88,19.44,5.58V545.59z M163.62,525.44c-8.91,1.22-17.99,7.83-21.16,10.34c-2.57,0.04-6.47,0.49-11.12,2.25
	c1.08-1.7,2.45-3.8,3.98-6.13c4.29-3,17.1-12.31,23.51-20.73c1.89-2.48,3.47-5.49,4.79-8.62V525.44z M163.62,483.43
	c-0.25,0.12-0.51,0.23-0.75,0.36c-0.77-0.78-1.64-1.45-2.6-1.98c1.46-0.78,2.59-1.96,3.35-3.46V483.43z M163.62,467.25
	c-0.45-1.3-1.02-2.57-1.72-3.77c-2.65-4.54-6.91-8.01-11.73-7.75c-4.2,0.23-7.4,2.81-9.79,6.07c-0.07-2.45-0.69-4.73-1.91-6.81
	c-0.5-0.86-1.1-1.69-1.79-2.48c-0.03-0.04-0.07-0.07-0.11-0.11c4.35-6.75,1.74-14.49,1.74-14.49c7.84,7.54,21.29-0.29,21.29-0.29
	c-5.75-17.54-17.44-13.18-17.44-13.18c7.04-3.89,6.97-13.97,6.51-18.69c4.89,6.09,10.82,9.43,14.96,11.16V467.25z M163.62,360.59
	c-5.07-4.98-10.27-6.86-10.38-6.89l-0.69-0.24l0.01,0.73c0.22,12.65,5.84,21.13,11.05,26.29v23.68
	c-8.29-11.93-21.35-13.31-21.52-13.32l-0.73-0.07l0.19,0.71c1.26,4.74,3.16,8.67,5.37,11.94c-13.56,1.88-15.4,14.28-15.4,14.28
	c-2.2-8.33-11.28-11.28-16.93-12.32v-7.88c7.98-1.11,25.63-5.64,34.6-24.11l0.45-0.93l-1.02,0.21c-0.58,0.12-14.41,3.04-21.17,6.53
	c-4,2.07-7.58,5.33-10.43,8.5c0.78-1.38,1.6-2.7,2.46-3.93c1.29-1.84,2.55-3.86,3.76-5.96c4.76-2.47,11.08-7.41,13.69-9.52
	c1.6,1.06,3.68,1.31,5.57,0.48c2.96-1.29,4.31-4.74,3.01-7.7c-1.3-2.96-4.74-4.31-7.7-3.01c-2.92,1.28-4.27,4.66-3.05,7.6
	c-1.67,1.34-4.98,3.94-8.32,6.2c1.06-2.1,2.05-4.19,2.96-6.18c4.96-6.41,9.9-10.8,14.49-13.79c0.07-0.04,0.14-0.08,0.2-0.13
	c6.78-4.38,12.8-5.7,17-5.96c0.82,0.79,1.65,1.54,2.5,2.25V360.59z M163.62,341.02c-1.96,0.59-3.45,1.14-4.15,1.41
	c-1.64,0.17-3.5,0.49-5.52,1.04c1.29-1.68,2.93-3.77,4.74-6.06c1.29-0.76,2.99-1.79,4.93-3.01V341.02z M163.62,315.82
	c-4.55,7.87-6.72,15.45-7.63,19.5c-3.61,4.58-6.78,8.69-7.74,10.22c-1.08,0.49-2.19,1.04-3.32,1.68c0.18-1.96,0.51-4.12,0.85-6.08
	c11.6-14.04,6.05-29.61,5.99-29.77l-0.26-0.71l-0.56,0.51c-12.86,11.74-10.21,25.12-8.63,30.03c-0.46,2.72-0.87,5.79-0.92,8.21
	c-2.52,1.71-5.13,3.83-7.78,6.42c0.72-1.84,1.22-3.16,1.43-3.74c0.27-0.07,0.53-0.14,0.79-0.26c2.63-1.15,3.83-4.21,2.68-6.85
	c-1.15-2.63-4.22-3.83-6.85-2.68c-2.63,1.15-3.83,4.21-2.68,6.85c0.52,1.19,1.45,2.07,2.54,2.59c-0.73,1.96-2.42,6.3-4.7,11.4
	c3.54-18.43-4.03-32.54-4.13-32.72l-0.41-0.75l-0.46,0.72c-3.85,5.97-6.06,11.83-7.21,17.34v-32.42c3.19,0.95,6.12,0.7,7.57-0.4
	c3.75-2.86,6.07-5.95,3.37-16.19c-0.94-3.57-1.72-6.58-2.34-9.19c1.52,4.36,4.16,9.3,8.77,13.42c11.04,9.86,26.26,3.44,25.02-2.08
	c-1.08-4.79-6.05-9.27-11.52-12.88c-0.11-0.07-0.03-0.23,0.09-0.19c6,2.14,12.61,3.45,18.06,1.96V315.82z M163.62,262.36v8.83
	c-3.34-1.9-7.78-3.06-13.23-2.79c-3.13,0.15-2.44-0.51,1.13-1.19c4.46-0.85,8.71-2.82,12.11-5.29
	C163.62,262.08,163.62,262.22,163.62,262.36z M162.57,244.19c-9.52-1.68-19.33,4.38-26.39,10.37c-0.07,0.06-0.17-0.03-0.11-0.1
	c4.42-5.26,9.28-11.71,11.43-16.95c1.68-4.07,1.24-8.77-1.12-11.49c10.06-0.63,17.8-3.77,17.88-3.8l0.87-0.36l-0.77-0.53
	c-1.18-0.81-2.72-2.12-4.51-3.63c-5.29-4.47-13.28-11.23-21.63-13.21c-1.31-0.31-2.73-0.46-4.24-0.46c-7.33,0-15.23,3.57-19.38,5.75
	v-3.68c1.91-3.33,4.48-7.55,7.5-11.86c1.9,0.3,5,0.67,8.9,0.67c0,0,0,0,0,0c11.78,0,28.51-3.27,41.33-18.86l0.66-0.8l-1.04-0.03
	c-0.02,0-1.89-0.06-4.67-0.06c-5.58,0-15.87,0.23-22.04,1.74c-5.62,1.38-11.12,4.55-15.56,7.72c1.55-1.72,3.16-3.34,4.8-4.79
	c2.06-1.81,4.12-3.83,6.13-5.96c6.81-1.68,16.69-6.3,19.63-7.72c1.01,1.75,2.9,2.94,5.07,2.94c3.23,0,5.85-2.63,5.85-5.86
	c0-3.23-2.63-5.85-5.85-5.85c-2.86,0-5.25,2.07-5.75,4.79c-0.1,0.03-0.2,0.06-0.3,0.11c-0.09,0.04-6.93,3.4-13.48,5.84
	c1.95-2.28,3.81-4.58,5.53-6.78c15.41-12.35,28.39-14.95,36.58-14.95c2.76,0,5.12,0.29,7.04,0.67c5.14,5.41,11.44,8.98,18.81,10.69
	c-6.45,5.21-12.41,11-17.8,17.29c-0.2-10.55-3.27-18.79-3.34-18.95l-0.34-0.87l-0.55,0.76c-0.84,1.16-2.19,2.67-3.74,4.42
	c-4.6,5.18-11.55,13-13.73,21.3c-1.81,6.91,0.98,15.41,3.4,20.95c-6.46,12.98-10.89,27.14-12.86,42.07
	C164.1,244.52,163.37,244.34,162.57,244.19z M313.84,337.98c-5.29,14.02-8.19,23.99-11.55,35.53c-0.79,2.71-1.61,5.53-2.5,8.53
	c-15.63,52.84-22.41,97.33-26.89,126.77c-2.24,14.7-3.93,25.77-5.83,31.7c-0.5-0.15-1-0.3-1.52-0.46c-4.45-1.34-9.65-2.9-13.37-4.38
	c-0.89-6.49-3.88-34.45,2.97-80.58c0.71-4.81,1.03-10.35,1.37-16.21c0.33-5.67,0.66-11.53,1.38-17.42
	c2.7-22.12,6.53-44.27,7.22-48.24c0.23,0.06,0.51,0.12,0.83,0.12c0,0,0,0,0,0c1.35,0,2.9-0.9,3.87-4.31
	c0.79-0.55,1.67-1.29,2.6-2.29c0.47-0.51,1.06-0.93,1.71-1.29c0.17,0.46,0.34,0.94,0.52,1.42c1.42,3.98,8.45,8.77,11.8,8.77
	c0.44,0,0.82-0.08,1.13-0.23c2.67-1.34,7.33-8.54,7-12.72c-0.12-1.59-1.65-3.03-3.57-4.24c1.94-3.61,4.07-7.47,6.22-10.8
	c4.77-7.37,13.99-24.94,17.56-32.63C317.08,324.4,315.72,333.02,313.84,337.98z M268.9,222.04c0.23-0.27,0.46-0.53,0.66-0.77
	c0.94-1.14,1.61-1.29,2.14-1.29c0.35,0,0.75,0.07,1.3,0.24c0.44,0.13,1.13,0.45,1.92,0.81c1.85,0.85,4.19,1.91,5.82,1.8
	c2.22-0.15,2.56-2.48,2.77-3.86c0.04-0.3,0.09-0.58,0.14-0.81c0.18-0.79,0.56-0.86,1.29-1.01c0.14-0.03,0.29-0.06,0.43-0.1
	c1-0.25,1.14-1.66,1.13-2.46c0.66-0.11,1.42-0.31,1.84-0.52c0.6-0.29,0.67-0.97,0.48-1.46c-0.05-0.15,0-0.35,0.15-0.55
	c0.27-0.38,0.96-0.82,1.82-0.69c0.55,0.08,0.99,0.01,1.33-0.13c-0.07,0.58-0.02,1.71,1.19,2.78c0.49,0.43,0.55,0.67,0.56,0.76
	c0.01,0.14-0.13,0.31-0.34,0.54c-0.11,0.12-0.23,0.24-0.31,0.37c-0.62,0.88,0.39,2.02,0.49,2.13l0.14,0.16
	c-0.29,0.1-0.62,0.24-0.9,0.45c-0.67,0.49-0.49,1.26-0.35,1.82c0.06,0.26,0.13,0.54,0.11,0.75c-0.02,0.27-0.34,0.89-1.83,2.37
	c-0.35,0.35-0.64,1.1-0.5,2c0.12,0.79,0.61,1.91,2.23,2.76c0.92,0.48,2.13,0.86,3.41,1.26c2.28,0.71,4.86,1.53,6.37,3.11
	c2.24,2.34,4.98,12.25,4.67,15.64c-0.01,0.1-0.81,9.86-5.57,16.27c-3.72,5.01-7.57,10.2-8.05,11.64c-0.56,1.66-0.13,5.78,7.33,15.53
	c-1.72,5.1-3.29,9.28-4.29,10.86c-1.33,2.11-3.4,6.14-5.79,10.81c-3.42,6.67-7.8,15.21-12.06,22.06c-1.59-3.6-3.53-7.96-5.52-12.42
	c1.06-14.08,2.25-27.01,3.11-30.46c0.54-2.15,0.73-5.56,0.71-9.52c0.08-0.23,0.15-0.47,0.21-0.71c3.07-12.27,1.33-30.6-0.34-34.26
	c-1.53-3.36-9.47-20.78-9.47-20.78l-0.26-0.58c0.9-0.6,1.87-1.37,2.24-2.12C269.73,223.63,269.39,222.75,268.9,222.04z
	 M300.21,318.86c-2.62,6.33-11.58,27.48-14.37,32.23c-0.57-1.01-2.44-4.8-3.13-6.26c1.37-1.94,3.4-5.07,4.79-6.81
	C289.13,335.98,297.93,322.12,300.21,318.86z M422.27,444.24c-11.1-32.73-27.44-71.5-49.36-100.33c-10.65-14-19.19-21.2-23.87-24.54
	c-0.19-0.18-0.38-0.36-0.57-0.54c-5.23-4.94-9.35-8.84-11.28-17.39c-1.47-6.53-2.36-12.95-3.22-19.15c-0.17-1.2-0.33-2.39-0.5-3.57
	c0.72,0.15,1.47,0.22,2.26,0.22c8.47,0,17.33-8.88,17.7-9.25l0.62-0.62l-0.85-0.23c-9.48-2.53-8.5-9.8-6.88-21.85
	c0.57-4.24,1.21-9.04,1.45-14.3c0.97-21.35-4.26-30.14-13.02-37.39c-3.75-3.11-8.62-4.69-14.46-4.69c-5.04,0-8.87,1.2-9.07,1.26
	c-0.06,0.02-4.67,2.02-6.86,7.86c-1.7,1.81-3.81,4.28-4.28,5.87c-0.63,2.16-3.58,4.56-7.05,4.88c0.09-0.14,0.15-0.29,0.18-0.4
	l0.04-0.16l-0.06-0.15c-2.6-7.05-2.17-8.13-1.98-8.3c0.17-0.15,0.32-0.27,0.46-0.38c0.78-0.63,1.1-0.94,1.24-2.24
	c0.13-1.19,0.15-3.97,0.16-4.84c1.19-0.89,6.65-5.38,4.71-11.19c-1.79-5.37-9.05-7.07-14.88-8.44c-1.21-0.28-2.34-0.55-3.34-0.83
	c-1.63-0.46-3.63-0.7-5.76-0.7c-2.77,0-12.2,0.51-17.01,7.08c-3.74,5.1-3.44,11.57-3.25,15.86c0.07,1.54,0.13,2.88-0.04,3.57
	c-0.56,2.23-3.19,7.37-4.04,9l-2.28-1.6l-0.27,0.5c-0.04,0.07-4.14,7.54-7.49,11.12c-0.42,0.45-0.98,0.96-1.63,1.55
	c-4.46,4.05-13.73,12.47-16.15,37.49c-1.3,13.48-2.95,38.35-4.4,60.29c-0.2,2.96-0.39,5.91-0.58,8.8
	c-1.41,6.63-5.72,26.33-7.95,30.81l-0.1,0.19l2.64,7.51l3.61-12.55c-0.61,8.14-1.12,13.75-1.45,14.85l-0.11,0.38l0.34,0.21
	c0.18,0.11,4.33,2.58,7.56,3.2l1.82,76.06c-0.39,1.58-5.5,22.21-5.5,29.39c0,6.34,1.73,49.33,2.18,60.59l-0.77,5.24h-29.88
	c5.26-1.39,8.53-2.84,8.59-2.87l0.99-0.45l-0.98-0.47c-1.36-0.66-3.17-1.77-5.26-3.05c-4.82-2.95-11.56-7.07-18.55-9.11V354.54
	c10.64,5.08,21.46,5.82,26.84,5.82c2.68,0,4.28-0.17,4.34-0.18l1.08-0.12l-0.79-0.75c-0.95-0.91-2.15-2.31-3.54-3.94
	c-4.13-4.83-10.38-12.13-17.66-15.15c-2.15-0.89-4.74-1.34-7.69-1.34c-0.86,0-1.73,0.05-2.59,0.12v-11.63
	c3.19-2.43,6.24-5.04,8.57-7.61c8.44-9.3,12.5-27.03,12.67-27.78l0.18-0.82l-0.82,0.22c-8.59,2.32-15.33,6.52-20.62,11.47v-40.48
	c0-43.27,22.24-81.44,55.89-103.69c9.14-0.86,15.96-3.62,16.04-3.66l0.87-0.36l-0.77-0.53c-0.95-0.66-2.14-1.64-3.5-2.78
	c15.94-8.03,33.84-12.74,52.77-13.18c2.25,4.28,4.48,6.09,7.13,6.73c-1.81,1.45-5.4,4.69-3.68,6.47c1.84,1.91,6.07-3.78,6.07-3.78
	s-1.76,9.07,2.42,8.18c3.66-0.78,0.12-8.22,0.12-8.22c2.78,3.3,6.27,4.25,6.12,1.23c-0.1-1.96-2.61-3.33-4.36-4.04
	c1.69-0.58,4.47-2.03,5.88-5.47c51.33,6.96,92.81,45.37,104.3,95.14c-0.07,0-0.13-0.01-0.2-0.01c-6.98,0-14.36,2.68-19.74,4.64
	c-2,0.73-3.72,1.35-4.98,1.68l-0.91,0.23l0.69,0.63c0.13,0.12,12.4,11.27,28.04,12.59c0.18,2.71,0.28,5.44,0.28,8.19V444.24z
	 M412.76,184.73c1.9-0.36,3.67-0.98,5.23-1.77c1.66-0.84,4.61-2.9,5.78-7.28c0.5-1.86,0.61-3.9,0.36-6.11
	c4.74,5.26,10.39,6.98,16.41,4.95c3.55-1.2,6.34-3.53,8.07-6.57c1.4-2.45,2.11-5.34,1.97-8.45c3.22,3.96,6.7,7.03,10.21,9.41
	c-2.78,0.41-2.79,7.23-2.79,7.23c-1.07-4.08-3.74-6.39-4.88-3.66c-0.74,1.78,0.9,4.03,2.15,5.4c-2.6-0.31-8.17,0.07-11.05,7.99
	c-2.43,6.67-2.03,12.62,0.59,16.56c-0.04,1.6,0.06,5.62,1.72,8.15c-0.63,3.76-1.38,10.14-1.04,17.76
	C442.07,214.63,433.6,195.06,412.76,184.73z M428.01,228.04c5.88,5.66,12.28,10.73,15.95,13.53c1.83,2.97,3.49,5.7,4.77,7.83
	c-2.9-1.18-5.54-1.85-7.79-2.21c-2-2.3-5.98-6.47-10.74-9.41C429.58,234.49,428.85,231.25,428.01,228.04z M480.67,545.59h-3.1
	c-15.41-18.74-36.15-19.78-40.42-19.78c-0.58,0-0.89,0.02-0.89,0.02l-0.85,0.05l0.44,0.72c5.84,9.53,13.14,15.39,20.14,18.98h-23.53
	v-34.24c12.96,11.61,27.92,12.71,33.06,12.71c0.18,0,0.35,0,0.5,0c0.03,0.06,0.07,0.12,0.1,0.18c3.71,6.64,10,13.1,14.55,17.3
	V545.59z M444.03,323.11c-1.23,5.55-0.5,9.31,0.55,11.71c-3.69,1.06-6.15,3.36-5.67,5.5c0.91,4.05,5.12,7.84,9.75,10.9
	c0.09,0.06,0.03,0.2-0.08,0.16c-5.39-1.92-11.37-3.06-16.14-1.4v-25.19C439.05,326.53,444.03,323.11,444.03,323.11z M432.46,314.7
	v-12.04c2.48,8.77,7.98,10.12,7.98,10.12C437.19,312.9,434.56,313.67,432.46,314.7z M458.4,349.39l-0.48-1.05l0.83,0.8
	c0.56,0.53,1.2,1.3,1.87,2.18c1.51,1.98,3.19,4.58,4.44,6.59c1.47-0.05,3.09,0.52,4.56,1.6c1.58-4.77,4.51-11.57,4.54-11.65
	l0.46-1.06l-0.04,1.15c-0.12,3.35-2.37,10.8-3.13,13.24c0.33,0.37,0.64,0.77,0.92,1.19c2.24,3.32,2.5,7.18,0.85,9.39
	c1.9,4.5,3.89,10.3,3.91,10.37l0.38,1.09l-0.75-0.88c-1.57-1.87-3.79-6.12-5.3-9.19c-0.96,0.44-2.17,0.67-3.46,0.66
	c-1.89,4.37-4.42,9.36-4.45,9.43l-0.52,1.03l0.11-1.14c0.22-2.28,1.56-6.41,2.67-9.56c-1.78-0.4-3.49-1.26-4.7-2.68
	c-4.35,2.28-10.1,4.8-10.17,4.83l-1.05,0.46l0.81-0.82c1.85-1.84,6.33-4.62,9.28-6.36c-0.52-1.27-0.67-2.66-0.54-4.01
	c-3.98-1.36-7.89-2.9-7.95-2.92l-1.07-0.42l1.15,0c1.94,0.01,5.29,0.68,8.24,1.38c0.56-1.91,1.61-3.56,2.84-4.38
	c0.08-0.05,0.17-0.1,0.25-0.14C460.7,354.36,458.43,349.46,458.4,349.39z M448.69,319.46c-2.27,0-4.1-1.84-4.1-4.1
	c0-2.26,1.83-4.1,4.1-4.1c2.26,0,4.1,1.84,4.1,4.1C452.79,317.62,450.96,319.46,448.69,319.46z M444.51,367.79
	c2.65-0.13,4.88-0.3,6.77-0.47c-2.16,0.42-4.7,0.9-7.73,1.48c-4.15,0.79-8.09,2.73-11.09,5.12v-9
	C435.36,366.83,439.41,368.05,444.51,367.79z M434.2,388.28c8.06,1.42,16.36-3.71,22.33-8.77c0.06-0.05,0.15,0.03,0.09,0.09
	c-3.74,4.45-7.85,9.91-9.68,14.34c-0.45,1.1-0.72,2.26-0.82,3.4c-0.1-0.1-0.21-0.2-0.34-0.29c-2.39-1.54-5.41,5.44-5.41,5.44
	s-0.4-9.91-4.54-7.95c-3.63,1.72,1.9,8.62,1.9,8.62c-1.96-1.45-3.96-2.17-5.28-2.08v-13.2C433,388.03,433.56,388.17,434.2,388.28z
	 M436.59,406.53c-1.27,0.79-3.09,2.31-4.13,4.8v-6.2C433.65,405.93,435.31,406.33,436.59,406.53z M432.62,420.97
	c2.76,8.12,7.28,13.37,12.49,14.53c1.33,1.61,3.79,4.18,6.48,5.05c1.86,3.31,5.1,8.53,9.81,14.16c-0.31,0.25-0.62,0.5-0.91,0.76
	c-5.21,4.65-7.11,13.65-7.77,18.56c-0.84,1.72-1.73,4.06-2.3,7.01c-0.79-1.56-1.75-3.51-2.82-5.71c-0.43-5.18-1.72-17.16-4.82-24.81
	c-2.14-5.29-6.57-10.5-10.33-14.3v-15.8C432.51,420.61,432.55,420.78,432.62,420.97z M444.87,476.73c2.17,4.45,4.15,8.39,4.99,9.73
	c-0.02,0.96-0.01,1.98,0.06,3.03c-1.4-0.85-2.9-1.87-4.24-2.83c-3.38-7.32-8.77-11.26-13.22-13.36v-10.01
	C436.88,469.88,442.03,474.47,444.87,476.73z M444.39,489.5c1.91,1.35,4.07,2.77,5.91,3.71c0.38,2.48,1.01,5.16,1.96,8.04
	c-1.18-1.27-2.02-2.14-2.32-2.45c-0.57-0.58-1.58-0.58-2.17-0.01c-0.29,0.29-0.46,0.67-0.46,1.08c0,0.41,0.15,0.8,0.45,1.1
	c0.07,0.07,3.99,4.07,8.47,9.44c-8.45-6.76-17.33-9.64-23.76-10.86v-15.15C436.95,488.09,441.84,489.18,444.39,489.5z M480.67,537.3
	c-1.24-1.2-2.54-2.53-3.84-3.94c1.86-5.05,6.22-20.77-4.9-34.8l-0.64-0.81l-0.25,1.01c-0.12,0.46-2.81,11.45-2.64,17.54
	c0.09,3.03,0.88,6.12,1.9,8.9c-0.54-0.81-1.04-1.63-1.5-2.45c-0.94-1.68-2.02-3.4-3.19-5.1c-0.14-4.53-1.59-11.19-2.25-14.03
	c3.25-0.48,5.75-3.28,5.75-6.65c0-3.71-3.02-6.73-6.73-6.73c-3.71,0-6.73,3.02-6.73,6.73c0,2.92,1.88,5.41,4.48,6.34
	c0.23,0.93,1.24,5.22,1.89,9.42c-1.16-1.51-2.34-2.96-3.48-4.33c-7.41-14.83-5.92-25.31-3.85-30.97
	c7.46-2.48,13.39-6.78,17.98-11.43c2.46,2.03,5.12,3.99,8,5.79V537.3z M480.67,467.35c-1.93-1.3-3.75-2.69-5.48-4.11
	c2.19-2.54,4.01-5.09,5.48-7.42V467.35z M480.67,446.69c-0.13,0.04-0.25,0.07-0.39,0.1c-2.26,0.6-4.97,1.32-7.77,2.28
	c9.24-13.85,5.62-28.38,5.57-28.56l-0.19-0.73l-0.61,0.45c-13.62,10.18-15.01,22.89-14.35,30.45c-3.69-4.63-6.34-8.85-7.96-11.67
	c1.31-2.75,2-7.71,1.43-8.66c-0.04,0.03-0.08,0.06-0.12,0.09c2.72-5.38,1.83-14.07-3.51-20.28c-3.47-4.04-6.28-5.42-9.25-5.44
	c0.85-1.09,2.14-2.89,2.73-4.53c0.98,4.96,5.8,8.15,13.99,1.96c5.37-4.06,7.89-10.96,9.06-17.12c0.02-0.13,0.2-0.12,0.21,0.01
	c0.36,4.21,1.47,8.62,3.97,12.72c1.26,2.07,4.07,3.97,7.17,1.93V446.69z M480.67,331.64c-4.25-4.26-10.17-4.82-12.29-3.2
	c-3.17,2.42-5.13,5.04-2.85,13.7c0.8,3.02,1.45,5.57,1.98,7.78c-1.29-3.69-3.52-7.87-7.43-11.36c-2.55-2.28-5.37-3.53-8.1-4.04
	c4.73-5.71,2.3-12.96,2.3-12.96c6.37,6.12,17.28-0.23,17.28-0.23c-4.67-14.24-14.16-10.7-14.16-10.7c3.36-1.86,4.72-5.45,5.2-8.88
	c6.12,5.52,12.89,8.71,18.06,10.49V331.64z M480.67,299.16c-2.24-2.73-4.83-5.33-7.72-7.29c-6.94-4.68-21.68-9.65-22.3-9.86
	l-0.98-0.33l0.34,0.98c1.67,4.78,3.91,8.84,6.46,12.31c-6.65,3.23-7.68,10.16-7.68,10.16c-2.19-8.3-12.8-10.03-16.34-10.37v-32.4
	c0-2.97-0.11-5.92-0.3-8.84c2.65-0.58,5.24-1.48,7.74-2.7c7.35,1.2,20.87,6.22,32.74,25.97c0.75,2.36,1.59,4.83,2.51,7.32
	c-3.94-3.4-7.82-7.34-9.11-8.67c0.34-0.82,0.53-1.71,0.53-2.65c0-3.8-3.08-6.87-6.87-6.87s-6.87,3.08-6.87,6.87
	c0,3.8,3.08,6.88,6.87,6.88c1.52,0,2.92-0.5,4.06-1.33c2.5,2.56,9.04,9.08,14.05,12.48c0.91,2.12,1.87,4.17,2.87,6.1V299.16z
	 M476.65,277.27c-2.26-6.85-3.85-12.94-4.53-15.69c1.79-0.12,3.39-0.92,4.55-2.15C475.95,264.83,475.8,270.82,476.65,277.27z
	 M480.67,214.6c-6.15-7.43-13.34-11.49-13.48-11.57l-0.82-0.45l0.07,0.93c0.09,1.22,0.04,2.94-0.01,4.94
	c-0.16,5.92-0.39,14.86,2.76,21.49c2.21,4.66,7.2,8.26,11.49,10.64v2.91c-0.96,2.54-1.88,5.43-2.66,8.63
	c-1.03-2.5-3.48-4.26-6.36-4.26c-3.8,0-6.87,3.08-6.87,6.87c0,2.51,1.35,4.7,3.36,5.9c0.01,0.08,0.01,0.15,0.03,0.22
	c0.06,0.25,0.48,2.07,1.22,4.85c-2.62-3.27-5.25-5.99-7.84-8.24c0.25-2.65,0.19-6.04,0.04-9.06c0.9-1.91,2.12-5.11,2.63-9.17
	c0.77-6.11-0.03-15.38-8.18-24.79l-0.49-0.57l-0.34,0.67c-0.09,0.17-8.15,16.47,2.72,33.29c0.13,2.21,0.21,4.66,0.15,6.84
	c-1.2-0.88-2.38-1.66-3.54-2.35c-0.28-0.59-0.77-1.48-1.43-2.63c-5.84-15.51-4.38-31.34-3.29-38.29c2.05-0.99,4.63-3.25,5.58-4.6
	c5.22-1.74,9.57-9.1,9.3-17.14c-0.16-4.85-1.37-7.43-3.47-9.14c2.21-0.52,6.73-1.87,5.97-4.16c-0.82-2.46-6.94,0.78-6.94,0.78
	s3.29-4.47,2.75-6.86c6.36,3.78,12.68,5.42,17.66,6.09V214.6z M480.67,161.28c-13.7-12.13-29.42-13.31-34.93-13.31
	c-0.48,0-0.84,0.01-1.11,0.02c-0.38-0.27-0.77-0.51-1.17-0.74c4.08-2.18,5.88-7.08,4.71-13.23c-0.49-2.59-1.48-5.21-2.86-7.57
	c-3.01-5.15-7.84-9.09-13.31-8.79c-4.77,0.26-8.4,3.19-11.11,6.89c-0.08-2.78-0.79-5.37-2.17-7.74c-0.43-0.73-0.94-1.44-1.49-2.13
	c0.16,0.01,0.31,0.02,0.47,0.02c4.13,0,7.55-3.1,8.07-7.09c4.2,1.14,14.74,3.86,21.85,4.32c2.59,1.91,5.2,3.7,7.76,5.25
	c9.66,5.86,19.23,16,25.3,23.1V161.28z M480.67,133.88c-2.86-3.18-6.2-6.66-9.83-10c4.72-5.28,7.83-10.74,9.83-16.01V133.88z
	 M480.67,76.1c-17.54,15.8-17.01,33.74-15.03,43.29c-2.63-2.13-5.35-4.1-8.1-5.77c-0.14-0.09-0.28-0.18-0.42-0.26
	c0.4-8.46-0.17-40.39-28.93-63.65h37.4c-8.46,11.93-8.09,27.16-8.09,27.38l0.03,0.94l0.77-0.54c1-0.7,2.5-1.54,4.24-2.52
	c5.16-2.9,12.96-7.27,17.05-13.38c0.41-0.61,0.76-1.26,1.08-1.94V76.1z"/>
</svg>
